# xmcd
#
# Track frame offsets: 
#        150
#        19497
#        40554
#        58091
#        76815
#        100055
#        116559
#        132209
#        150636
#        167030
#
# Disc length: 2503 seconds
#
# Revision: 3
# Processed by: cddbd v1.4PL0 Copyright (c) Steve Scherf et al.
# Submitted via: ExactAudioCopy v0.95a4
#
DISCID=7509c50a
DTITLE=José Luis Rodríguez - Clave de amor
DYEAR=2003
DGENRE=Balada
TTITLE0=Oliendo a ti [con Raúl Di Blasio]
TTITLE1=Espérate [con Raúl Di Blasio]
TTITLE2=El amar y el querer [con Raúl Di Blasio]
TTITLE3=Cuando un amor se termina [con Raúl Di Blasio]
TTITLE4=Vibro [con Raúl Di Blasio]
TTITLE5=Lo dudo [con Raúl Di Blasio]
TTITLE6=Como todos [con Raúl Di Blasio]
TTITLE7=Procuro olvidarte [con Raúl Di Blasio]
TTITLE8=Te estoy queriendo tanto [con Raúl Di Blasio]
TTITLE9=El más feliz del mundo [con Raúl Di Blasio]
EXTD=
EXTT0=
EXTT1=
EXTT2=
EXTT3=
EXTT4=
EXTT5=
EXTT6=
EXTT7=
EXTT8=
EXTT9=
PLAYORDER=
